<?xml version="1.0" encoding="iso-8859-1"?>
<!-- Generator: Adobe Illustrator 16.0.0, SVG Export Plug-In . SVG Version: 6.00 Build 0)  -->
<!DOCTYPE svg PUBLIC "-//W3C//DTD SVG 1.1//EN" "http://www.w3.org/Graphics/SVG/1.1/DTD/svg11.dtd">
<svg version="1.1" id="Capa_1" xmlns="http://www.w3.org/2000/svg" xmlns:xlink="http://www.w3.org/1999/xlink" x="0px" y="0px"
	 width="574.5px" height="574.5px" viewBox="0 0 574.5 574.5" style="enable-background:new 0 0 574.5 574.5;" xml:space="preserve"
	>
<g>
	<path d="M287.374,501.105V374.564h106.28c2.394,0.715,4.571,0.804,6.482,0c26.466-136.04,125.63-307.385,104.915-347.851
		C484.335-13.788,422.94-3.358,404.85,25.66c-13.839,22.197-25.322,36.876-42.519,153.648
		c-36.644-11.964-104.959-28.126-150.344-1.678c-43.984,25.644-60.181,68.324-66.038,92.396
		c-30.867-2.732-54.707-1.946-63.511,5.018c-35.582,28.287,0,99.521,0,99.521h46.1v39.698H77.867v23.769h61.627v-2.697V414.28
		v-39.698h110.906v126.541c-74.021,4.196-136.014,33.322-162.89,73.377h362.771C423.405,534.445,361.42,505.319,287.374,501.105z
		 M234.05,215.488c30.76-17.894,89.905-3.25,122.174,8.018c-3.161,24.144-6.519,51.698-10.144,83.11
		c-42.626-9.982-103.414-23.251-156.299-31.18C194.647,258.347,206.353,231.614,234.05,215.488z"/>
</g>
<g>
</g>
<g>
</g>
<g>
</g>
<g>
</g>
<g>
</g>
<g>
</g>
<g>
</g>
<g>
</g>
<g>
</g>
<g>
</g>
<g>
</g>
<g>
</g>
<g>
</g>
<g>
</g>
<g>
</g>
</svg>
